<svg xmlns="http://www.w3.org/2000/svg" xmlns:xlink="http://www.w3.org/1999/xlink" width="500" zoomAndPan="magnify" viewBox="0 0 375 149.999998" height="200" preserveAspectRatio="xMidYMid meet" version="1.0"><defs><g/></defs><g fill="rgb(0%, 29.019165%, 67.83905%)" fill-opacity="1"><g transform="translate(151.683025, 49.305643)"><g><path d="M 7.78125 -26.96875 C 9.914062 -26.96875 11.503906 -26.398438 12.546875 -25.265625 C 13.585938 -24.140625 14.109375 -22.488281 14.109375 -20.3125 L 14.109375 -16.796875 C 14.109375 -14.617188 13.585938 -12.960938 12.546875 -11.828125 C 11.503906 -10.703125 9.914062 -10.140625 7.78125 -10.140625 L 5.78125 -10.140625 L 5.78125 0 L 1.546875 0 L 1.546875 -26.96875 Z M 5.78125 -23.125 L 5.78125 -13.984375 L 7.78125 -13.984375 C 8.445312 -13.984375 8.957031 -14.160156 9.3125 -14.515625 C 9.675781 -14.878906 9.859375 -15.550781 9.859375 -16.53125 L 9.859375 -20.578125 C 9.859375 -21.554688 9.675781 -22.222656 9.3125 -22.578125 C 8.957031 -22.941406 8.445312 -23.125 7.78125 -23.125 Z M 5.78125 -23.125 "/></g></g></g><g fill="rgb(0%, 29.019165%, 67.83905%)" fill-opacity="1"><g transform="translate(172.185521, 49.305643)"><g><path d="M 0.3125 -26.96875 L 13.40625 -26.96875 L 13.40625 -23.125 L 8.984375 -23.125 L 8.984375 0 L 4.734375 0 L 4.734375 -23.125 L 0.3125 -23.125 Z M 0.3125 -26.96875 "/></g></g></g><g fill="rgb(0%, 29.019165%, 67.83905%)" fill-opacity="1"><g transform="translate(151.683025, 84.403232)"><g><path d="M 15.6875 -26.96875 L 11.25 -13.875 L 15.984375 0 L 11.515625 0 L 8.046875 -10.671875 L 4.546875 0 L 0.578125 0 L 5.3125 -13.875 L 0.890625 -26.96875 L 5.28125 -26.96875 L 8.484375 -17.03125 L 11.75 -26.96875 Z M 15.6875 -26.96875 "/></g></g></g><g fill="rgb(0%, 29.019165%, 67.83905%)" fill-opacity="1"><g transform="translate(174.035374, 84.403232)"><g><path d="M 5.515625 -8.9375 L 0.15625 -26.96875 L 4.578125 -26.96875 L 7.828125 -14.6875 L 11.0625 -26.96875 L 15.109375 -26.96875 L 9.75 -8.9375 L 9.75 0 L 5.515625 0 Z M 5.515625 -8.9375 "/></g></g></g><g fill="rgb(0%, 29.019165%, 67.83905%)" fill-opacity="1"><g transform="translate(195.077408, 84.403232)"><g><path d="M 13.296875 -26.96875 L 13.296875 -23.203125 L 5.234375 -3.859375 L 13.296875 -3.859375 L 13.296875 0 L 0.890625 0 L 0.890625 -3.78125 L 8.9375 -23.125 L 1.265625 -23.125 L 1.265625 -26.96875 Z M 13.296875 -26.96875 "/></g></g></g><g fill="rgb(0%, 29.019165%, 67.83905%)" fill-opacity="1"><g transform="translate(151.683025, 112.977202)"><g><path d="M 2.515625 -8.9375 C 3.210938 -8.9375 3.707031 -8.769531 4 -8.4375 C 4.300781 -8.113281 4.453125 -7.617188 4.453125 -6.953125 L 4.453125 -6.53125 C 4.453125 -6.0625 4.375 -5.675781 4.21875 -5.375 C 4.070312 -5.082031 3.800781 -4.878906 3.40625 -4.765625 C 3.84375 -4.640625 4.148438 -4.410156 4.328125 -4.078125 C 4.515625 -3.753906 4.609375 -3.34375 4.609375 -2.84375 L 4.609375 -2.09375 C 4.609375 -1.414062 4.441406 -0.894531 4.109375 -0.53125 C 3.773438 -0.175781 3.257812 0 2.5625 0 L 0.515625 0 L 0.515625 -8.9375 Z M 2.265625 -5.140625 C 2.671875 -5.140625 2.972656 -5.21875 3.171875 -5.375 C 3.367188 -5.539062 3.46875 -5.859375 3.46875 -6.328125 L 3.46875 -6.859375 C 3.46875 -7.253906 3.394531 -7.546875 3.25 -7.734375 C 3.101562 -7.929688 2.847656 -8.03125 2.484375 -8.03125 L 1.5 -8.03125 L 1.5 -5.140625 Z M 2.5625 -0.90625 C 3.269531 -0.90625 3.625 -1.3125 3.625 -2.125 L 3.625 -2.90625 C 3.625 -3.40625 3.523438 -3.75 3.328125 -3.9375 C 3.128906 -4.132812 2.8125 -4.234375 2.375 -4.234375 L 1.5 -4.234375 L 1.5 -0.90625 Z M 2.5625 -0.90625 "/></g></g></g><g fill="rgb(0%, 29.019165%, 67.83905%)" fill-opacity="1"><g transform="translate(158.601352, 112.977202)"><g><path d="M 3.6875 -4.984375 L 3.6875 -4.078125 L 1.5 -4.078125 L 1.5 -0.90625 L 4.1875 -0.90625 L 4.1875 0 L 0.515625 0 L 0.515625 -8.9375 L 4.1875 -8.9375 L 4.1875 -8.03125 L 1.5 -8.03125 L 1.5 -4.984375 Z M 3.6875 -4.984375 "/></g></g></g><g fill="rgb(0%, 29.019165%, 67.83905%)" fill-opacity="1"><g transform="translate(165.111235, 112.977202)"><g><path d="M 2.5 -8.9375 C 3.207031 -8.9375 3.71875 -8.757812 4.03125 -8.40625 C 4.34375 -8.0625 4.5 -7.554688 4.5 -6.890625 L 4.5 -6.171875 C 4.5 -5.671875 4.40625 -5.265625 4.21875 -4.953125 C 4.039062 -4.648438 3.765625 -4.441406 3.390625 -4.328125 C 3.796875 -4.210938 4.082031 -3.992188 4.25 -3.671875 C 4.414062 -3.347656 4.5 -2.945312 4.5 -2.46875 L 4.5 -1.078125 C 4.5 -0.878906 4.507812 -0.6875 4.53125 -0.5 C 4.550781 -0.320312 4.601562 -0.15625 4.6875 0 L 3.671875 0 C 3.617188 -0.125 3.578125 -0.257812 3.546875 -0.40625 C 3.523438 -0.5625 3.515625 -0.785156 3.515625 -1.078125 L 3.515625 -2.484375 C 3.515625 -2.992188 3.398438 -3.34375 3.171875 -3.53125 C 2.941406 -3.71875 2.617188 -3.8125 2.203125 -3.8125 L 1.5 -3.8125 L 1.5 0 L 0.515625 0 L 0.515625 -8.9375 Z M 2.25 -4.71875 C 2.644531 -4.71875 2.953125 -4.800781 3.171875 -4.96875 C 3.398438 -5.132812 3.515625 -5.460938 3.515625 -5.953125 L 3.515625 -6.796875 C 3.515625 -7.210938 3.429688 -7.519531 3.265625 -7.71875 C 3.109375 -7.925781 2.84375 -8.03125 2.46875 -8.03125 L 1.5 -8.03125 L 1.5 -4.71875 Z M 2.25 -4.71875 "/></g></g></g><g fill="rgb(0%, 29.019165%, 67.83905%)" fill-opacity="1"><g transform="translate(172.055091, 112.977202)"><g><path d="M 2.609375 -8.9375 C 3.304688 -8.9375 3.816406 -8.738281 4.140625 -8.34375 C 4.472656 -7.945312 4.640625 -7.40625 4.640625 -6.71875 L 4.640625 -2.203125 C 4.640625 -1.515625 4.472656 -0.972656 4.140625 -0.578125 C 3.816406 -0.191406 3.304688 0 2.609375 0 L 0.515625 0 L 0.515625 -8.9375 Z M 2.59375 -0.90625 C 2.945312 -0.90625 3.210938 -1.015625 3.390625 -1.234375 C 3.566406 -1.453125 3.65625 -1.765625 3.65625 -2.171875 L 3.65625 -6.765625 C 3.65625 -7.171875 3.566406 -7.484375 3.390625 -7.703125 C 3.210938 -7.921875 2.941406 -8.03125 2.578125 -8.03125 L 1.5 -8.03125 L 1.5 -0.90625 Z M 2.59375 -0.90625 "/></g></g></g><g fill="rgb(0%, 29.019165%, 67.83905%)" fill-opacity="1"><g transform="translate(179.024472, 112.977202)"><g><path d="M 1.5 -8.9375 L 1.5 0 L 0.515625 0 L 0.515625 -8.9375 Z M 1.5 -8.9375 "/></g></g></g><g fill="rgb(0%, 29.019165%, 67.83905%)" fill-opacity="1"><g transform="translate(182.956096, 112.977202)"><g><path d="M 2.5 -8.9375 C 3.207031 -8.9375 3.71875 -8.757812 4.03125 -8.40625 C 4.34375 -8.0625 4.5 -7.554688 4.5 -6.890625 L 4.5 -6.171875 C 4.5 -5.671875 4.40625 -5.265625 4.21875 -4.953125 C 4.039062 -4.648438 3.765625 -4.441406 3.390625 -4.328125 C 3.796875 -4.210938 4.082031 -3.992188 4.25 -3.671875 C 4.414062 -3.347656 4.5 -2.945312 4.5 -2.46875 L 4.5 -1.078125 C 4.5 -0.878906 4.507812 -0.6875 4.53125 -0.5 C 4.550781 -0.320312 4.601562 -0.15625 4.6875 0 L 3.671875 0 C 3.617188 -0.125 3.578125 -0.257812 3.546875 -0.40625 C 3.523438 -0.5625 3.515625 -0.785156 3.515625 -1.078125 L 3.515625 -2.484375 C 3.515625 -2.992188 3.398438 -3.34375 3.171875 -3.53125 C 2.941406 -3.71875 2.617188 -3.8125 2.203125 -3.8125 L 1.5 -3.8125 L 1.5 0 L 0.515625 0 L 0.515625 -8.9375 Z M 2.25 -4.71875 C 2.644531 -4.71875 2.953125 -4.800781 3.171875 -4.96875 C 3.398438 -5.132812 3.515625 -5.460938 3.515625 -5.953125 L 3.515625 -6.796875 C 3.515625 -7.210938 3.429688 -7.519531 3.265625 -7.71875 C 3.109375 -7.925781 2.84375 -8.03125 2.46875 -8.03125 L 1.5 -8.03125 L 1.5 -4.71875 Z M 2.25 -4.71875 "/></g></g></g><g fill="rgb(0%, 29.019165%, 67.83905%)" fill-opacity="1"><g transform="translate(189.89995, 112.977202)"><g><path d="M 1.5 -8.9375 L 1.5 0 L 0.515625 0 L 0.515625 -8.9375 Z M 1.5 -8.9375 "/></g></g></g><g fill="rgb(0%, 29.019165%, 67.83905%)" fill-opacity="1"><g transform="translate(193.831575, 112.977202)"><g/></g></g><g fill="rgb(0%, 29.019165%, 67.83905%)" fill-opacity="1"><g transform="translate(197.724905, 112.977202)"><g><path d="M 2.390625 -9.03125 C 3.066406 -9.03125 3.566406 -8.828125 3.890625 -8.421875 C 4.210938 -8.015625 4.375 -7.472656 4.375 -6.796875 L 4.375 -6.546875 L 3.4375 -6.546875 L 3.4375 -6.84375 C 3.4375 -7.25 3.351562 -7.5625 3.1875 -7.78125 C 3.03125 -8.007812 2.769531 -8.125 2.40625 -8.125 C 2.050781 -8.125 1.789062 -8.007812 1.625 -7.78125 C 1.46875 -7.5625 1.390625 -7.253906 1.390625 -6.859375 C 1.390625 -6.523438 1.460938 -6.234375 1.609375 -5.984375 C 1.765625 -5.734375 1.953125 -5.503906 2.171875 -5.296875 C 2.390625 -5.085938 2.628906 -4.882812 2.890625 -4.6875 C 3.148438 -4.488281 3.390625 -4.269531 3.609375 -4.03125 C 3.828125 -3.789062 4.007812 -3.519531 4.15625 -3.21875 C 4.3125 -2.914062 4.390625 -2.554688 4.390625 -2.140625 C 4.390625 -1.460938 4.222656 -0.921875 3.890625 -0.515625 C 3.566406 -0.109375 3.0625 0.09375 2.375 0.09375 C 1.6875 0.09375 1.179688 -0.109375 0.859375 -0.515625 C 0.535156 -0.921875 0.375 -1.460938 0.375 -2.140625 L 0.375 -2.65625 L 1.296875 -2.65625 L 1.296875 -2.09375 C 1.296875 -1.6875 1.378906 -1.367188 1.546875 -1.140625 C 1.722656 -0.921875 1.988281 -0.8125 2.34375 -0.8125 C 2.707031 -0.8125 2.972656 -0.921875 3.140625 -1.140625 C 3.304688 -1.367188 3.390625 -1.6875 3.390625 -2.09375 C 3.390625 -2.425781 3.316406 -2.710938 3.171875 -2.953125 C 3.023438 -3.191406 2.835938 -3.414062 2.609375 -3.625 C 2.390625 -3.832031 2.148438 -4.035156 1.890625 -4.234375 C 1.640625 -4.441406 1.40625 -4.664062 1.1875 -4.90625 C 0.96875 -5.144531 0.78125 -5.414062 0.625 -5.71875 C 0.476562 -6.019531 0.40625 -6.378906 0.40625 -6.796875 C 0.40625 -7.484375 0.566406 -8.023438 0.890625 -8.421875 C 1.210938 -8.828125 1.710938 -9.03125 2.390625 -9.03125 Z M 2.390625 -9.03125 "/></g></g></g><g fill="rgb(0%, 29.019165%, 67.83905%)" fill-opacity="1"><g transform="translate(204.387956, 112.977202)"><g><path d="M 3.6875 -4.984375 L 3.6875 -4.078125 L 1.5 -4.078125 L 1.5 -0.90625 L 4.1875 -0.90625 L 4.1875 0 L 0.515625 0 L 0.515625 -8.9375 L 4.1875 -8.9375 L 4.1875 -8.03125 L 1.5 -8.03125 L 1.5 -4.984375 Z M 3.6875 -4.984375 "/></g></g></g><g fill="rgb(0%, 29.019165%, 67.83905%)" fill-opacity="1"><g transform="translate(210.897841, 112.977202)"><g><path d="M 0.25 -0.90625 C 0.34375 -0.894531 0.429688 -0.890625 0.515625 -0.890625 C 0.597656 -0.890625 0.675781 -0.890625 0.75 -0.890625 C 1.070312 -0.910156 1.328125 -1.007812 1.515625 -1.1875 C 1.703125 -1.375 1.796875 -1.691406 1.796875 -2.140625 L 1.796875 -8.9375 L 2.78125 -8.9375 L 2.78125 -2.203125 C 2.78125 -1.785156 2.726562 -1.4375 2.625 -1.15625 C 2.53125 -0.875 2.398438 -0.644531 2.234375 -0.46875 C 2.066406 -0.300781 1.863281 -0.179688 1.625 -0.109375 C 1.394531 -0.0351562 1.144531 0.00390625 0.875 0.015625 C 0.757812 0.015625 0.65625 0.015625 0.5625 0.015625 C 0.46875 0.0234375 0.363281 0.0195312 0.25 0 Z M 0.25 -0.90625 "/></g></g></g><g fill="rgb(0%, 29.019165%, 67.83905%)" fill-opacity="1"><g transform="translate(216.067547, 112.977202)"><g><path d="M 1.515625 -1.796875 L 1.171875 0 L 0.25 0 L 1.96875 -8.9375 L 3.40625 -8.9375 L 5.125 0 L 4.125 0 L 3.78125 -1.796875 Z M 1.640625 -2.65625 L 3.640625 -2.65625 L 2.625 -7.8125 Z M 1.640625 -2.65625 "/></g></g></g><g fill="rgb(0%, 29.019165%, 67.83905%)" fill-opacity="1"><g transform="translate(223.368781, 112.977202)"><g><path d="M 2.03125 -3.875 L 1.5 -3 L 1.5 0 L 0.515625 0 L 0.515625 -8.9375 L 1.5 -8.9375 L 1.5 -4.625 L 3.875 -8.9375 L 4.890625 -8.9375 L 2.625 -4.859375 L 4.96875 0 L 3.9375 0 Z M 2.03125 -3.875 "/></g></g></g><g fill="rgb(0%, 29.019165%, 67.83905%)" fill-opacity="1"><g transform="translate(230.50409, 112.977202)"><g/></g></g><g fill="rgb(0%, 29.019165%, 67.83905%)" fill-opacity="1"><g transform="translate(234.39742, 112.977202)"><g><path d="M 2.34375 -7.3125 C 2.164062 -7.207031 1.972656 -7.117188 1.765625 -7.046875 C 1.554688 -6.984375 1.332031 -6.945312 1.09375 -6.9375 L 1.09375 -7.75 C 1.332031 -7.757812 1.535156 -7.796875 1.703125 -7.859375 C 1.878906 -7.929688 2.023438 -8.019531 2.140625 -8.125 C 2.253906 -8.226562 2.347656 -8.347656 2.421875 -8.484375 C 2.503906 -8.628906 2.570312 -8.78125 2.625 -8.9375 L 3.3125 -8.9375 L 3.3125 0 L 2.34375 0 Z M 2.34375 -7.3125 "/></g></g></g><g fill="rgb(0%, 29.019165%, 67.83905%)" fill-opacity="1"><g transform="translate(240.626506, 112.977202)"><g><path d="M 2.46875 -9.03125 C 3.15625 -9.03125 3.664062 -8.828125 4 -8.421875 C 4.34375 -8.015625 4.515625 -7.46875 4.515625 -6.78125 L 4.515625 -2.21875 C 4.515625 -1.507812 4.347656 -0.945312 4.015625 -0.53125 C 3.679688 -0.113281 3.160156 0.09375 2.453125 0.09375 C 1.765625 0.09375 1.253906 -0.109375 0.921875 -0.515625 C 0.597656 -0.921875 0.4375 -1.46875 0.4375 -2.15625 L 0.4375 -2.328125 L 1.359375 -2.328125 L 1.359375 -2.09375 C 1.359375 -1.6875 1.445312 -1.367188 1.625 -1.140625 C 1.800781 -0.921875 2.066406 -0.8125 2.421875 -0.8125 C 2.804688 -0.8125 3.082031 -0.929688 3.25 -1.171875 C 3.425781 -1.410156 3.515625 -1.769531 3.515625 -2.25 L 3.515625 -4.25 C 3.273438 -3.625 2.796875 -3.3125 2.078125 -3.3125 C 1.503906 -3.3125 1.082031 -3.5 0.8125 -3.875 C 0.550781 -4.25 0.421875 -4.757812 0.421875 -5.40625 L 0.421875 -6.78125 C 0.421875 -7.46875 0.585938 -8.015625 0.921875 -8.421875 C 1.265625 -8.828125 1.78125 -9.03125 2.46875 -9.03125 Z M 2.46875 -8.125 C 2.101562 -8.125 1.832031 -8.007812 1.65625 -7.78125 C 1.488281 -7.550781 1.40625 -7.234375 1.40625 -6.828125 L 1.40625 -5.484375 C 1.40625 -5.078125 1.488281 -4.757812 1.65625 -4.53125 C 1.832031 -4.3125 2.101562 -4.203125 2.46875 -4.203125 C 2.832031 -4.203125 3.097656 -4.3125 3.265625 -4.53125 C 3.429688 -4.757812 3.515625 -5.078125 3.515625 -5.484375 L 3.515625 -6.828125 C 3.515625 -7.234375 3.429688 -7.550781 3.265625 -7.78125 C 3.097656 -8.007812 2.832031 -8.125 2.46875 -8.125 Z M 2.46875 -8.125 "/></g></g></g><g fill="rgb(0%, 29.019165%, 67.83905%)" fill-opacity="1"><g transform="translate(247.506538, 112.977202)"><g><path d="M 2.46875 -9.03125 C 3.15625 -9.03125 3.664062 -8.828125 4 -8.421875 C 4.34375 -8.015625 4.515625 -7.46875 4.515625 -6.78125 L 4.515625 -2.21875 C 4.515625 -1.507812 4.347656 -0.945312 4.015625 -0.53125 C 3.679688 -0.113281 3.160156 0.09375 2.453125 0.09375 C 1.765625 0.09375 1.253906 -0.109375 0.921875 -0.515625 C 0.597656 -0.921875 0.4375 -1.46875 0.4375 -2.15625 L 0.4375 -2.328125 L 1.359375 -2.328125 L 1.359375 -2.09375 C 1.359375 -1.6875 1.445312 -1.367188 1.625 -1.140625 C 1.800781 -0.921875 2.066406 -0.8125 2.421875 -0.8125 C 2.804688 -0.8125 3.082031 -0.929688 3.25 -1.171875 C 3.425781 -1.410156 3.515625 -1.769531 3.515625 -2.25 L 3.515625 -4.25 C 3.273438 -3.625 2.796875 -3.3125 2.078125 -3.3125 C 1.503906 -3.3125 1.082031 -3.5 0.8125 -3.875 C 0.550781 -4.25 0.421875 -4.757812 0.421875 -5.40625 L 0.421875 -6.78125 C 0.421875 -7.46875 0.585938 -8.015625 0.921875 -8.421875 C 1.265625 -8.828125 1.78125 -9.03125 2.46875 -9.03125 Z M 2.46875 -8.125 C 2.101562 -8.125 1.832031 -8.007812 1.65625 -7.78125 C 1.488281 -7.550781 1.40625 -7.234375 1.40625 -6.828125 L 1.40625 -5.484375 C 1.40625 -5.078125 1.488281 -4.757812 1.65625 -4.53125 C 1.832031 -4.3125 2.101562 -4.203125 2.46875 -4.203125 C 2.832031 -4.203125 3.097656 -4.3125 3.265625 -4.53125 C 3.429688 -4.757812 3.515625 -5.078125 3.515625 -5.484375 L 3.515625 -6.828125 C 3.515625 -7.234375 3.429688 -7.550781 3.265625 -7.78125 C 3.097656 -8.007812 2.832031 -8.125 2.46875 -8.125 Z M 2.46875 -8.125 "/></g></g></g><g fill="rgb(0%, 29.019165%, 67.83905%)" fill-opacity="1"><g transform="translate(254.386569, 112.977202)"><g><path d="M 2.46875 -9.03125 C 3.15625 -9.03125 3.660156 -8.828125 3.984375 -8.421875 C 4.316406 -8.015625 4.484375 -7.46875 4.484375 -6.78125 L 4.484375 -6.546875 C 4.484375 -6.085938 4.390625 -5.703125 4.203125 -5.390625 C 4.023438 -5.078125 3.753906 -4.847656 3.390625 -4.703125 C 3.773438 -4.566406 4.050781 -4.335938 4.21875 -4.015625 C 4.394531 -3.691406 4.484375 -3.304688 4.484375 -2.859375 L 4.484375 -2.171875 C 4.484375 -1.484375 4.316406 -0.929688 3.984375 -0.515625 C 3.660156 -0.109375 3.15625 0.09375 2.46875 0.09375 C 1.78125 0.09375 1.269531 -0.113281 0.9375 -0.53125 C 0.613281 -0.945312 0.453125 -1.492188 0.453125 -2.171875 L 0.453125 -2.78125 L 1.390625 -2.78125 L 1.390625 -2.109375 C 1.390625 -1.703125 1.472656 -1.382812 1.640625 -1.15625 C 1.816406 -0.925781 2.082031 -0.8125 2.4375 -0.8125 C 2.800781 -0.8125 3.066406 -0.925781 3.234375 -1.15625 C 3.398438 -1.382812 3.484375 -1.734375 3.484375 -2.203125 L 3.484375 -2.890625 C 3.484375 -3.742188 3.109375 -4.1875 2.359375 -4.21875 L 1.828125 -4.21875 L 1.828125 -5.109375 L 2.40625 -5.109375 C 2.738281 -5.117188 3 -5.226562 3.1875 -5.4375 C 3.382812 -5.644531 3.484375 -5.941406 3.484375 -6.328125 L 3.484375 -6.734375 C 3.484375 -7.191406 3.398438 -7.535156 3.234375 -7.765625 C 3.066406 -8.003906 2.800781 -8.125 2.4375 -8.125 C 2.082031 -8.125 1.816406 -8.007812 1.640625 -7.78125 C 1.472656 -7.550781 1.390625 -7.234375 1.390625 -6.828125 L 1.390625 -6.375 L 0.453125 -6.375 L 0.453125 -6.78125 C 0.453125 -7.46875 0.613281 -8.015625 0.9375 -8.421875 C 1.269531 -8.828125 1.78125 -9.03125 2.46875 -9.03125 Z M 2.46875 -9.03125 "/></g></g></g><path fill="rgb(0%, 29.019165%, 67.83905%)" d="M 140.347656 111.367188 C 140.347656 111.367188 140.050781 111.394531 139.5 111.445312 C 138.949219 111.496094 138.140625 111.585938 137.113281 111.664062 C 135.054688 111.828125 132.113281 112.042969 128.582031 112.222656 C 126.820312 112.316406 124.90625 112.414062 122.882812 112.476562 C 120.863281 112.550781 118.730469 112.644531 116.523438 112.679688 C 114.320312 112.71875 112.039062 112.800781 109.722656 112.808594 C 107.40625 112.824219 105.054688 112.84375 102.703125 112.859375 C 100.347656 112.84375 97.996094 112.828125 95.683594 112.808594 C 93.363281 112.808594 91.085938 112.722656 88.882812 112.683594 C 86.675781 112.644531 84.542969 112.554688 82.523438 112.484375 C 80.5 112.417969 78.585938 112.320312 76.824219 112.226562 C 73.292969 112.046875 70.351562 111.832031 68.292969 111.664062 C 66.234375 111.496094 65.058594 111.367188 65.058594 111.367188 C 65.058594 111.367188 66.234375 111.234375 68.292969 111.070312 C 70.351562 110.902344 73.292969 110.683594 76.824219 110.507812 C 78.585938 110.410156 80.5 110.316406 82.523438 110.25 C 84.542969 110.175781 86.675781 110.085938 88.882812 110.050781 C 91.085938 110.011719 93.363281 109.921875 95.683594 109.921875 C 97.996094 109.90625 100.347656 109.886719 102.703125 109.871094 C 105.054688 109.886719 107.40625 109.90625 109.722656 109.921875 C 112.039062 109.929688 114.320312 110.015625 116.523438 110.054688 C 118.730469 110.089844 120.863281 110.179688 122.882812 110.253906 C 124.90625 110.316406 126.820312 110.417969 128.582031 110.511719 C 132.113281 110.6875 135.054688 110.902344 137.113281 111.070312 C 138.140625 111.144531 138.949219 111.238281 139.5 111.285156 C 140.050781 111.339844 140.347656 111.367188 140.347656 111.367188 " fill-opacity="1" fill-rule="nonzero"/><path fill="rgb(0%, 29.019165%, 67.83905%)" d="M 119.222656 77.730469 C 119.222656 78.171875 119.582031 78.660156 120.023438 78.820312 L 128.875 82.039062 C 129.316406 82.203125 129.671875 81.976562 129.671875 81.535156 L 129.671875 80.484375 C 129.671875 80.042969 129.316406 79.554688 128.875 79.394531 L 120.023438 76.175781 C 119.582031 76.015625 119.222656 76.242188 119.222656 76.679688 L 119.222656 77.730469 " fill-opacity="1" fill-rule="nonzero"/><path fill="rgb(0%, 29.019165%, 67.83905%)" d="M 106.722656 82.980469 C 106.722656 83.28125 106.964844 83.355469 107.269531 83.140625 L 113.328125 78.851562 C 113.628906 78.632812 113.875 78.21875 113.875 77.914062 L 113.875 77.199219 C 113.875 76.894531 113.628906 76.824219 113.328125 77.035156 L 107.269531 81.328125 C 106.964844 81.542969 106.722656 81.960938 106.722656 82.261719 L 106.722656 82.980469 " fill-opacity="1" fill-rule="nonzero"/><path fill="rgb(0%, 29.019165%, 67.83905%)" d="M 106.722656 90.132812 C 106.722656 90.4375 106.964844 90.507812 107.269531 90.296875 L 113.328125 86.003906 C 113.628906 85.789062 113.875 85.371094 113.875 85.070312 L 113.875 84.347656 C 113.875 84.046875 113.628906 83.976562 113.328125 84.191406 L 107.269531 88.480469 C 106.964844 88.695312 106.722656 89.113281 106.722656 89.417969 L 106.722656 90.132812 " fill-opacity="1" fill-rule="nonzero"/><path fill="rgb(0%, 29.019165%, 67.83905%)" d="M 119.222656 85.28125 C 119.222656 85.722656 119.582031 86.207031 120.023438 86.371094 L 128.875 89.59375 C 129.316406 89.753906 129.671875 89.523438 129.671875 89.085938 L 129.671875 88.035156 C 129.671875 87.59375 129.316406 87.105469 128.875 86.945312 L 120.023438 83.722656 C 119.582031 83.5625 119.222656 83.792969 119.222656 84.230469 L 119.222656 85.28125 " fill-opacity="1" fill-rule="nonzero"/><path fill="rgb(0%, 29.019165%, 67.83905%)" d="M 119.222656 93.109375 C 119.222656 93.550781 119.582031 94.039062 120.023438 94.199219 L 128.875 97.417969 C 129.316406 97.582031 129.671875 97.355469 129.671875 96.910156 L 129.671875 95.863281 C 129.671875 95.421875 129.316406 94.933594 128.875 94.773438 L 120.023438 91.550781 C 119.582031 91.390625 119.222656 91.617188 119.222656 92.058594 L 119.222656 93.109375 " fill-opacity="1" fill-rule="nonzero"/><path fill="rgb(0%, 29.019165%, 67.83905%)" d="M 106.722656 98.359375 C 106.722656 98.660156 106.964844 98.734375 107.269531 98.519531 L 113.328125 94.226562 C 113.628906 94.015625 113.875 93.59375 113.875 93.292969 L 113.875 92.574219 C 113.875 92.273438 113.628906 92.199219 113.328125 92.414062 L 107.269531 96.707031 C 106.964844 96.921875 106.722656 97.339844 106.722656 97.640625 L 106.722656 98.359375 " fill-opacity="1" fill-rule="nonzero"/><path fill="rgb(0%, 29.019165%, 67.83905%)" d="M 106.722656 105.515625 C 106.722656 105.816406 106.964844 105.886719 107.269531 105.675781 L 113.328125 101.382812 C 113.628906 101.167969 113.875 100.75 113.875 100.449219 L 113.875 99.726562 C 113.875 99.429688 113.628906 99.355469 113.328125 99.570312 L 107.269531 103.859375 C 106.964844 104.074219 106.722656 104.492188 106.722656 104.796875 L 106.722656 105.515625 " fill-opacity="1" fill-rule="nonzero"/><path fill="rgb(0%, 29.019165%, 67.83905%)" d="M 119.222656 100.65625 C 119.222656 101.101562 119.582031 101.589844 120.023438 101.75 L 128.875 104.972656 C 129.316406 105.132812 129.671875 104.90625 129.671875 104.464844 L 129.671875 103.414062 C 129.671875 102.96875 129.316406 102.484375 128.875 102.324219 L 120.023438 99.105469 C 119.582031 98.945312 119.222656 99.167969 119.222656 99.609375 L 119.222656 100.65625 " fill-opacity="1" fill-rule="nonzero"/><path fill="rgb(0%, 29.019165%, 67.83905%)" d="M 75.75 110.8125 L 75.75 50.324219 L 88.167969 40.421875 L 88.167969 110.863281 C 88.863281 110.878906 89.5625 110.894531 90.257812 110.917969 L 90.257812 39.847656 L 108.117188 47.296875 L 108.117188 75.632812 L 103.945312 78.960938 C 103.695312 79.15625 103.554688 79.457031 103.554688 79.777344 L 103.554688 111.761719 L 105.640625 111.761719 L 105.640625 80.28125 L 115.269531 72.605469 L 115.269531 111.761719 L 117.355469 111.761719 L 117.355469 72.019531 L 131.375 77.871094 L 131.375 111.761719 L 133.464844 111.761719 L 133.464844 77.171875 C 133.464844 76.753906 133.214844 76.371094 132.824219 76.207031 L 116.773438 69.511719 C 116.679688 69.464844 116.574219 69.433594 116.460938 69.417969 C 116.425781 69.414062 116.390625 69.40625 116.351562 69.40625 L 116.3125 69.402344 L 116.304688 69.40625 C 116.066406 69.402344 115.835938 69.480469 115.648438 69.628906 L 110.207031 73.96875 L 110.207031 46.601562 C 110.207031 46.179688 109.953125 45.800781 109.5625 45.636719 L 89.683594 37.34375 C 89.585938 37.292969 89.472656 37.257812 89.355469 37.242188 C 89.324219 37.234375 89.289062 37.234375 89.253906 37.230469 L 89.203125 37.230469 C 88.964844 37.226562 88.734375 37.304688 88.539062 37.457031 L 74.054688 49.007812 C 73.804688 49.207031 73.660156 49.507812 73.660156 49.824219 L 73.660156 110.808594 C 74.359375 110.8125 75.054688 110.8125 75.75 110.816406 " fill-opacity="1" fill-rule="nonzero"/><path fill="rgb(0%, 29.019165%, 67.83905%)" d="M 92.816406 47.289062 C 92.816406 47.839844 93.261719 48.445312 93.808594 48.644531 L 104.769531 52.632812 C 105.316406 52.832031 105.757812 52.546875 105.757812 52 L 105.757812 50.707031 C 105.757812 50.15625 105.316406 49.550781 104.769531 49.355469 L 93.808594 45.363281 C 93.261719 45.164062 92.816406 45.445312 92.816406 45.992188 L 92.816406 47.289062 " fill-opacity="1" fill-rule="nonzero"/><path fill="rgb(0%, 29.019165%, 67.83905%)" d="M 77.335938 53.792969 C 77.335938 54.167969 77.640625 54.257812 78.011719 53.992188 L 85.515625 48.679688 C 85.890625 48.414062 86.191406 47.894531 86.191406 47.519531 L 86.191406 46.628906 C 86.191406 46.257812 85.890625 46.167969 85.515625 46.429688 L 78.011719 51.746094 C 77.640625 52.011719 77.335938 52.527344 77.335938 52.90625 L 77.335938 53.792969 " fill-opacity="1" fill-rule="nonzero"/><path fill="rgb(0%, 29.019165%, 67.83905%)" d="M 77.335938 62.953125 C 77.335938 63.328125 77.640625 63.417969 78.011719 63.152344 L 85.515625 57.835938 C 85.890625 57.570312 86.191406 57.054688 86.191406 56.679688 L 86.191406 55.789062 C 86.191406 55.414062 85.890625 55.324219 85.515625 55.589844 L 78.011719 60.90625 C 77.640625 61.167969 77.335938 61.6875 77.335938 62.0625 L 77.335938 62.953125 " fill-opacity="1" fill-rule="nonzero"/><path fill="rgb(0%, 29.019165%, 67.83905%)" d="M 77.335938 72.113281 C 77.335938 72.488281 77.640625 72.574219 78.011719 72.308594 L 85.515625 66.996094 C 85.890625 66.730469 86.191406 66.210938 86.191406 65.839844 L 86.191406 64.949219 C 86.191406 64.574219 85.890625 64.484375 85.515625 64.75 L 78.011719 70.066406 C 77.640625 70.332031 77.335938 70.847656 77.335938 71.222656 L 77.335938 72.113281 " fill-opacity="1" fill-rule="nonzero"/><path fill="rgb(0%, 29.019165%, 67.83905%)" d="M 92.816406 56.644531 C 92.816406 57.191406 93.261719 57.800781 93.808594 57.996094 L 104.769531 61.984375 C 105.316406 62.183594 105.757812 61.90625 105.757812 61.359375 L 105.757812 60.058594 C 105.757812 59.511719 105.316406 58.90625 104.769531 58.707031 L 93.808594 54.71875 C 93.261719 54.519531 92.816406 54.800781 92.816406 55.347656 L 92.816406 56.644531 " fill-opacity="1" fill-rule="nonzero"/><path fill="rgb(0%, 29.019165%, 67.83905%)" d="M 92.816406 66.003906 C 92.816406 66.546875 93.261719 67.152344 93.808594 67.355469 L 104.769531 71.34375 C 105.316406 71.542969 105.757812 71.257812 105.757812 70.710938 L 105.757812 69.414062 C 105.757812 68.867188 105.316406 68.261719 104.769531 68.0625 L 93.808594 64.070312 C 93.261719 63.875 92.816406 64.15625 92.816406 64.703125 L 92.816406 66.003906 " fill-opacity="1" fill-rule="nonzero"/><path fill="rgb(0%, 29.019165%, 67.83905%)" d="M 92.816406 93.527344 C 92.816406 94.074219 93.261719 94.679688 93.808594 94.875 L 104.769531 98.867188 C 105.316406 99.066406 105.757812 98.78125 105.757812 98.238281 L 105.757812 96.9375 C 105.757812 96.390625 105.316406 95.785156 104.769531 95.585938 L 93.808594 91.597656 C 93.261719 91.398438 92.816406 91.679688 92.816406 92.226562 L 92.816406 93.527344 " fill-opacity="1" fill-rule="nonzero"/><path fill="rgb(0%, 29.019165%, 67.83905%)" d="M 77.335938 100.027344 C 77.335938 100.402344 77.640625 100.492188 78.011719 100.226562 L 85.515625 94.914062 C 85.890625 94.644531 86.191406 94.128906 86.191406 93.753906 L 86.191406 92.863281 C 86.191406 92.492188 85.890625 92.402344 85.515625 92.667969 L 78.011719 97.980469 C 77.640625 98.246094 77.335938 98.761719 77.335938 99.140625 L 77.335938 100.027344 " fill-opacity="1" fill-rule="nonzero"/><path fill="rgb(0%, 29.019165%, 67.83905%)" d="M 77.335938 109.1875 C 77.335938 109.5625 77.640625 109.652344 78.011719 109.386719 L 85.515625 104.070312 C 85.890625 103.808594 86.191406 103.289062 86.191406 102.914062 L 86.191406 102.023438 C 86.191406 101.648438 85.890625 101.5625 85.515625 101.824219 L 78.011719 107.140625 C 77.640625 107.40625 77.335938 107.921875 77.335938 108.296875 L 77.335938 109.1875 " fill-opacity="1" fill-rule="nonzero"/><path fill="rgb(0%, 29.019165%, 67.83905%)" d="M 92.816406 102.882812 C 92.816406 103.425781 93.261719 104.03125 93.808594 104.230469 L 104.769531 108.21875 C 105.316406 108.417969 105.757812 108.140625 105.757812 107.59375 L 105.757812 106.292969 C 105.757812 105.746094 105.316406 105.140625 104.769531 104.941406 L 93.808594 100.953125 C 93.261719 100.753906 92.816406 101.035156 92.816406 101.582031 L 92.816406 102.882812 " fill-opacity="1" fill-rule="nonzero"/><path fill="rgb(0%, 29.019165%, 67.83905%)" d="M 96.371094 111.242188 L 93.808594 110.308594 C 93.261719 110.109375 92.816406 110.390625 92.816406 110.9375 L 92.816406 111.027344 C 94.003906 111.085938 95.191406 111.15625 96.371094 111.242188 " fill-opacity="1" fill-rule="nonzero"/><path fill="rgb(0%, 29.019165%, 67.83905%)" d="M 92.816406 75.359375 C 92.816406 75.902344 93.261719 76.511719 93.808594 76.710938 L 104.769531 80.699219 L 105.757812 80.066406 L 105.757812 78.769531 C 105.757812 78.222656 105.316406 77.617188 104.769531 77.417969 L 93.808594 73.429688 C 93.261719 73.230469 92.816406 73.511719 92.816406 74.058594 L 92.816406 75.359375 " fill-opacity="1" fill-rule="nonzero"/><path fill="rgb(0%, 29.019165%, 67.83905%)" d="M 77.335938 81.273438 C 77.335938 81.648438 77.640625 81.734375 78.011719 81.46875 L 85.515625 76.15625 C 85.890625 75.890625 86.191406 75.371094 86.191406 74.996094 L 86.191406 74.109375 C 86.191406 73.730469 85.890625 73.644531 85.515625 73.910156 L 78.011719 79.222656 C 77.640625 79.492188 77.335938 80.007812 77.335938 80.382812 L 77.335938 81.273438 " fill-opacity="1" fill-rule="nonzero"/><path fill="rgb(0%, 29.019165%, 67.83905%)" d="M 85.515625 85.3125 L 78.011719 90.628906 C 77.988281 90.644531 77.96875 90.652344 77.945312 90.667969 L 77.398438 90.667969 C 77.359375 90.609375 77.335938 90.535156 77.335938 90.429688 L 77.335938 89.542969 C 77.335938 89.167969 77.640625 88.648438 78.011719 88.382812 L 85.515625 83.070312 C 85.890625 82.804688 86.191406 82.890625 86.191406 83.265625 L 86.191406 84.15625 C 86.191406 84.53125 85.890625 85.046875 85.515625 85.3125 " fill-opacity="1" fill-rule="nonzero"/><path fill="rgb(0%, 29.019165%, 67.83905%)" d="M 92.816406 84.710938 C 92.816406 85.257812 93.261719 85.863281 93.808594 86.0625 L 104.769531 90.054688 C 105.316406 90.25 105.1875 89.96875 105.1875 89.421875 L 105.1875 88.125 C 105.1875 87.578125 105.316406 86.972656 104.769531 86.773438 L 93.808594 82.785156 C 93.261719 82.585938 92.816406 82.867188 92.816406 83.414062 L 92.816406 84.710938 " fill-opacity="1" fill-rule="nonzero"/></svg>